<?xml version="1.0" standalone="no"?>
<!DOCTYPE svg PUBLIC "-//W3C//DTD SVG 20010904//EN"
 "http://www.w3.org/TR/2001/REC-SVG-20010904/DTD/svg10.dtd">
<svg version="1.0" xmlns="http://www.w3.org/2000/svg"
 width="800.000000pt" height="800.000000pt" viewBox="0 0 800.000000 800.000000"
 preserveAspectRatio="xMidYMid meet">
<metadata>
Created by potrace 1.14, written by Peter Selinger 2001-2017
</metadata>
<g transform="translate(0.000000,800.000000) scale(0.100000,-0.100000)"
fill="#000000" stroke="none">
<path d="M3930 7430 c-112 -24 -223 -104 -330 -239 -19 -24 -49 -60 -65 -80
-17 -20 -46 -56 -65 -81 -19 -25 -37 -47 -41 -50 -3 -3 -39 -45 -79 -95 -41
-49 -77 -91 -82 -93 -4 -2 -8 -8 -8 -14 0 -6 -6 -16 -14 -22 -7 -6 -62 -72
-122 -146 -129 -160 -134 -165 -158 -193 -10 -12 -55 -67 -99 -122 -45 -55
-84 -102 -87 -105 -3 -3 -25 -30 -49 -60 -25 -30 -51 -62 -58 -70 -21 -25
-181 -220 -205 -252 -26 -33 -50 -62 -81 -98 -12 -14 -38 -45 -57 -70 -19 -24
-42 -52 -50 -61 -8 -8 -58 -69 -112 -135 -53 -65 -104 -129 -115 -141 -10 -12
-25 -30 -33 -40 -28 -33 -61 -124 -69 -187 -5 -46 -3 -78 11 -129 22 -82 37
-107 98 -168 74 -73 151 -103 255 -102 85 2 93 4 288 92 37 17 69 31 72 31 3
0 39 16 81 35 41 19 77 35 80 35 2 0 38 16 80 35 41 19 77 35 80 35 2 0 38 16
80 35 41 19 77 35 79 35 2 0 38 16 79 35 42 19 79 35 84 35 4 0 20 7 36 15 16
8 77 36 135 61 58 25 125 54 149 65 23 10 63 29 90 40 26 12 65 30 87 40 22
10 52 21 68 24 15 4 27 11 27 16 0 5 7 9 15 9 9 0 30 8 48 17 18 9 37 16 42
14 6 -2 17 -4 25 -6 8 -2 47 -17 85 -35 39 -17 97 -43 130 -57 33 -14 67 -29
75 -34 8 -5 22 -12 30 -15 25 -10 132 -55 175 -74 22 -10 114 -51 205 -90 91
-39 183 -80 205 -90 22 -10 68 -30 102 -44 35 -14 87 -37 118 -51 30 -14 57
-26 60 -26 2 0 44 -18 92 -40 49 -22 97 -44 108 -49 176 -80 215 -92 296 -93
43 -1 88 3 100 10 13 6 43 19 66 28 79 33 179 157 199 247 20 90 3 214 -38
284 -13 22 -108 143 -212 269 -103 127 -225 275 -269 330 -45 55 -86 105 -92
111 -5 6 -21 25 -35 43 -13 18 -33 43 -45 56 -11 12 -27 31 -35 41 -32 40
-195 240 -205 251 -5 6 -55 66 -110 134 -55 67 -136 166 -180 220 -85 103 -85
103 -273 333 -113 139 -162 198 -209 252 -46 53 -137 110 -218 136 -44 14
-183 18 -235 8z m120 -489 c0 -4 8 -16 18 -27 9 -10 78 -93 152 -184 74 -91
137 -167 140 -170 3 -3 44 -52 90 -110 47 -58 90 -110 95 -116 6 -6 22 -26 37
-45 14 -19 35 -44 45 -55 10 -12 32 -39 48 -60 17 -21 45 -54 63 -73 17 -19
32 -38 32 -42 0 -4 6 -14 14 -22 12 -12 105 -122 128 -152 4 -5 20 -24 35 -42
16 -17 37 -43 47 -57 11 -15 29 -37 40 -49 12 -13 37 -43 56 -67 49 -62 147
-182 163 -200 7 -8 33 -40 57 -70 25 -30 49 -58 55 -62 5 -4 7 -9 5 -12 -5 -5
-99 35 -415 175 -27 12 -52 23 -55 24 -9 3 -53 22 -150 65 -52 23 -111 48
-130 57 -19 8 -63 28 -97 44 -35 16 -66 29 -70 29 -8 0 -92 39 -145 67 -16 8
-28 12 -28 9 0 -3 -15 3 -32 13 -27 15 -71 30 -93 32 -2 0 -19 5 -37 10 -18 5
-69 10 -113 10 -82 1 -133 -12 -233 -57 -29 -13 -80 -36 -115 -50 -34 -14 -83
-37 -109 -50 -27 -13 -48 -21 -48 -19 0 2 -27 -10 -60 -26 -33 -16 -62 -29
-64 -29 -2 0 -21 -8 -42 -17 -22 -9 -42 -16 -46 -15 -5 1 -8 -3 -8 -8 0 -6 -9
-10 -19 -10 -11 0 -23 -4 -26 -10 -3 -5 -15 -10 -26 -10 -10 0 -19 -4 -19 -10
0 -5 -5 -10 -11 -10 -11 0 -82 -30 -269 -113 -30 -13 -80 -35 -110 -47 -30
-13 -61 -28 -68 -33 -7 -5 -15 -8 -17 -5 -4 4 174 231 195 248 3 3 21 25 40
50 19 25 37 47 41 50 5 4 56 66 159 194 8 10 31 37 50 60 19 23 49 59 65 80
17 21 37 47 47 58 9 10 31 37 48 58 17 21 41 49 52 62 11 13 32 38 46 57 15
18 52 64 82 100 30 37 69 84 85 104 17 21 41 51 55 66 14 16 32 37 40 48 64
80 96 120 105 129 5 7 24 29 40 49 17 21 37 45 45 55 8 10 29 35 45 55 17 21
38 46 48 58 9 11 17 24 17 28 0 5 7 6 15 3 8 -4 15 -9 15 -13z"/>
<path d="M3080 4641 c-688 -344 -884 -446 -915 -477 -68 -67 -88 -176 -48
-262 38 -81 51 -88 959 -541 l871 -434 64 5 c60 5 114 30 929 438 686 342 872
439 898 468 35 38 65 98 57 112 -3 5 -1 11 5 15 9 6 8 29 -6 100 -9 42 -58
109 -96 133 -18 11 -418 213 -888 448 -753 376 -861 427 -905 429 -48 2 -92
-18 -925 -434z m1484 -359 c406 -204 553 -282 544 -289 -7 -5 -259 -133 -561
-283 l-547 -274 -107 54 c-58 30 -107 53 -108 50 -1 -3 -8 0 -16 7 -21 17
-469 242 -469 236 0 -3 -6 0 -13 6 -8 6 -96 52 -198 102 -101 51 -190 97 -197
102 -9 7 137 85 540 288 304 152 558 278 565 278 6 1 261 -124 567 -277z"/>
<path d="M2248 3319 c-6 -4 -20 -6 -30 -4 -10 2 -18 0 -18 -6 0 -5 -8 -9 -18
-9 -10 0 -22 -3 -26 -7 -4 -5 -11 -8 -16 -8 -5 0 -34 -22 -64 -48 -70 -60
-122 -163 -126 -247 -1 -30 -3 -60 -3 -66 0 -6 10 -42 22 -80 21 -65 84 -156
204 -294 12 -14 38 -45 57 -70 19 -25 40 -49 46 -55 6 -5 28 -32 50 -60 21
-27 41 -52 44 -55 3 -3 46 -54 95 -115 49 -60 104 -128 123 -150 18 -22 38
-46 43 -53 48 -60 115 -138 123 -144 6 -4 7 -8 2 -8 -5 0 0 -8 10 -17 11 -10
67 -76 124 -148 58 -71 112 -136 120 -145 8 -9 29 -33 45 -54 17 -21 37 -46
45 -56 8 -10 22 -27 30 -37 33 -41 106 -129 115 -140 11 -12 14 -16 191 -233
65 -80 126 -154 134 -164 168 -212 268 -276 443 -281 49 -2 103 1 120 7 18 5
39 11 49 13 47 10 134 65 188 117 33 32 60 62 60 66 0 5 17 26 38 48 20 23 59
70 87 105 27 35 52 66 55 69 3 3 25 30 50 60 25 30 47 57 50 60 3 3 34 41 70
85 35 44 69 85 75 91 5 7 24 29 41 50 17 22 96 118 175 214 79 96 173 211 209
255 35 44 67 82 70 85 3 3 43 52 90 110 109 134 121 150 143 172 9 10 17 22
17 27 0 5 4 11 8 13 4 2 59 66 122 143 62 77 122 149 132 160 30 34 153 188
176 222 12 17 22 38 22 47 0 9 5 16 12 16 6 0 9 3 5 6 -3 3 -2 17 4 31 22 58
16 180 -12 248 -7 17 -12 33 -11 36 1 4 -8 15 -18 24 -11 10 -20 22 -20 27 0
16 -71 77 -124 107 -94 53 -213 61 -311 20 -16 -7 -33 -12 -37 -11 -5 1 -8 -3
-8 -8 0 -5 -3 -9 -7 -8 -5 1 -19 -4 -33 -9 -33 -14 -218 -96 -325 -143 -22
-10 -89 -40 -150 -66 -60 -26 -138 -60 -173 -75 -34 -16 -64 -29 -66 -29 -2 0
-38 -16 -79 -35 -41 -19 -77 -35 -80 -35 -3 0 -34 -13 -69 -29 -128 -59 -506
-222 -523 -226 -5 -2 -14 -4 -20 -6 -5 -2 -30 6 -55 18 -25 11 -130 58 -235
103 -104 45 -210 92 -235 103 -25 12 -47 22 -50 22 -6 2 -69 30 -138 61 -29
13 -55 24 -57 24 -2 0 -32 13 -67 29 -35 16 -79 36 -98 44 -19 8 -93 41 -165
72 -71 31 -148 65 -170 74 -163 73 -326 140 -355 147 -46 10 -127 12 -142 3z
m3115 -651 c-24 -33 -89 -114 -93 -118 -3 -3 -77 -93 -165 -200 -87 -107 -167
-203 -177 -213 -10 -10 -18 -21 -18 -25 0 -4 -19 -27 -41 -52 -22 -25 -57 -66
-77 -92 -20 -27 -40 -48 -44 -48 -4 0 -8 -5 -8 -11 0 -6 -6 -16 -12 -23 -7 -7
-29 -33 -50 -57 -20 -24 -44 -54 -55 -66 -10 -12 -27 -33 -37 -47 -11 -15 -30
-39 -43 -54 -38 -44 -47 -54 -93 -112 -25 -30 -49 -60 -55 -66 -10 -12 -15
-17 -80 -99 -64 -79 -79 -97 -95 -114 -8 -9 -31 -37 -50 -61 -19 -25 -42 -54
-52 -65 -9 -11 -32 -39 -50 -61 l-34 -41 -25 26 c-13 14 -40 47 -59 71 -19 25
-37 47 -40 50 -3 3 -64 77 -135 165 -71 88 -132 162 -135 165 -3 3 -35 41 -70
85 -36 44 -67 82 -70 85 -3 3 -35 41 -70 85 -36 44 -89 109 -118 145 -30 36
-69 83 -87 105 -27 34 -116 142 -234 285 -16 19 -71 87 -123 150 -111 137
-117 145 -142 170 -31 32 -2 25 114 -26 118 -53 153 -68 260 -114 41 -18 100
-43 130 -57 30 -14 64 -28 75 -33 62 -27 106 -46 160 -70 33 -15 80 -35 105
-46 25 -10 48 -23 52 -29 4 -5 8 -7 8 -3 0 3 56 -18 124 -48 172 -74 262 -84
406 -44 25 7 47 12 50 12 3 0 14 5 25 11 11 6 22 12 25 12 3 1 21 8 40 17 19
8 145 64 280 123 135 59 263 115 285 125 22 10 130 57 240 105 110 48 211 93
225 101 32 17 45 18 33 2z"/>
</g>
</svg>
